<svg xmlns="http://www.w3.org/2000/svg" viewBox="0 0 57 57" shape-rendering="crispEdges"><rect width="57" height="57" fill="#FFFFFF"/><path fill="#000000" d="M4 4h1v1h-1zM5 4h1v1h-1zM6 4h1v1h-1zM7 4h1v1h-1zM8 4h1v1h-1zM9 4h1v1h-1zM10 4h1v1h-1zM12 4h1v1h-1zM14 4h1v1h-1zM15 4h1v1h-1zM18 4h1v1h-1zM19 4h1v1h-1zM20 4h1v1h-1zM21 4h1v1h-1zM24 4h1v1h-1zM27 4h1v1h-1zM29 4h1v1h-1zM30 4h1v1h-1zM34 4h1v1h-1zM35 4h1v1h-1zM40 4h1v1h-1zM44 4h1v1h-1zM46 4h1v1h-1zM47 4h1v1h-1zM48 4h1v1h-1zM49 4h1v1h-1zM50 4h1v1h-1zM51 4h1v1h-1zM52 4h1v1h-1zM4 5h1v1h-1zM10 5h1v1h-1zM12 5h1v1h-1zM13 5h1v1h-1zM14 5h1v1h-1zM16 5h1v1h-1zM19 5h1v1h-1zM20 5h1v1h-1zM22 5h1v1h-1zM24 5h1v1h-1zM28 5h1v1h-1zM29 5h1v1h-1zM30 5h1v1h-1zM31 5h1v1h-1zM32 5h1v1h-1zM33 5h1v1h-1zM34 5h1v1h-1zM36 5h1v1h-1zM37 5h1v1h-1zM38 5h1v1h-1zM39 5h1v1h-1zM41 5h1v1h-1zM42 5h1v1h-1zM43 5h1v1h-1zM44 5h1v1h-1zM46 5h1v1h-1zM52 5h1v1h-1zM4 6h1v1h-1zM6 6h1v1h-1zM7 6h1v1h-1zM8 6h1v1h-1zM10 6h1v1h-1zM12 6h1v1h-1zM13 6h1v1h-1zM14 6h1v1h-1zM15 6h1v1h-1zM16 6h1v1h-1zM17 6h1v1h-1zM18 6h1v1h-1zM20 6h1v1h-1zM23 6h1v1h-1zM24 6h1v1h-1zM25 6h1v1h-1zM26 6h1v1h-1zM27 6h1v1h-1zM28 6h1v1h-1zM29 6h1v1h-1zM33 6h1v1h-1zM34 6h1v1h-1zM35 6h1v1h-1zM36 6h1v1h-1zM37 6h1v1h-1zM43 6h1v1h-1zM44 6h1v1h-1zM46 6h1v1h-1zM48 6h1v1h-1zM49 6h1v1h-1zM50 6h1v1h-1zM52 6h1v1h-1zM4 7h1v1h-1zM6 7h1v1h-1zM7 7h1v1h-1zM8 7h1v1h-1zM10 7h1v1h-1zM13 7h1v1h-1zM14 7h1v1h-1zM17 7h1v1h-1zM19 7h1v1h-1zM21 7h1v1h-1zM23 7h1v1h-1zM25 7h1v1h-1zM28 7h1v1h-1zM30 7h1v1h-1zM31 7h1v1h-1zM34 7h1v1h-1zM37 7h1v1h-1zM38 7h1v1h-1zM39 7h1v1h-1zM40 7h1v1h-1zM41 7h1v1h-1zM43 7h1v1h-1zM46 7h1v1h-1zM48 7h1v1h-1zM49 7h1v1h-1zM50 7h1v1h-1zM52 7h1v1h-1zM4 8h1v1h-1zM6 8h1v1h-1zM7 8h1v1h-1zM8 8h1v1h-1zM10 8h1v1h-1zM15 8h1v1h-1zM16 8h1v1h-1zM17 8h1v1h-1zM18 8h1v1h-1zM19 8h1v1h-1zM22 8h1v1h-1zM26 8h1v1h-1zM27 8h1v1h-1zM28 8h1v1h-1zM29 8h1v1h-1zM30 8h1v1h-1zM32 8h1v1h-1zM35 8h1v1h-1zM36 8h1v1h-1zM37 8h1v1h-1zM41 8h1v1h-1zM46 8h1v1h-1zM48 8h1v1h-1zM49 8h1v1h-1zM50 8h1v1h-1zM52 8h1v1h-1zM4 9h1v1h-1zM10 9h1v1h-1zM12 9h1v1h-1zM15 9h1v1h-1zM16 9h1v1h-1zM19 9h1v1h-1zM22 9h1v1h-1zM24 9h1v1h-1zM25 9h1v1h-1zM26 9h1v1h-1zM30 9h1v1h-1zM32 9h1v1h-1zM33 9h1v1h-1zM34 9h1v1h-1zM35 9h1v1h-1zM37 9h1v1h-1zM38 9h1v1h-1zM39 9h1v1h-1zM41 9h1v1h-1zM42 9h1v1h-1zM46 9h1v1h-1zM52 9h1v1h-1zM4 10h1v1h-1zM5 10h1v1h-1zM6 10h1v1h-1zM7 10h1v1h-1zM8 10h1v1h-1zM9 10h1v1h-1zM10 10h1v1h-1zM12 10h1v1h-1zM14 10h1v1h-1zM16 10h1v1h-1zM18 10h1v1h-1zM20 10h1v1h-1zM22 10h1v1h-1zM24 10h1v1h-1zM26 10h1v1h-1zM28 10h1v1h-1zM30 10h1v1h-1zM32 10h1v1h-1zM34 10h1v1h-1zM36 10h1v1h-1zM38 10h1v1h-1zM40 10h1v1h-1zM42 10h1v1h-1zM44 10h1v1h-1zM46 10h1v1h-1zM47 10h1v1h-1zM48 10h1v1h-1zM49 10h1v1h-1zM50 10h1v1h-1zM51 10h1v1h-1zM52 10h1v1h-1zM12 11h1v1h-1zM14 11h1v1h-1zM15 11h1v1h-1zM20 11h1v1h-1zM21 11h1v1h-1zM22 11h1v1h-1zM26 11h1v1h-1zM30 11h1v1h-1zM31 11h1v1h-1zM35 11h1v1h-1zM37 11h1v1h-1zM38 11h1v1h-1zM39 11h1v1h-1zM41 11h1v1h-1zM42 11h1v1h-1zM43 11h1v1h-1zM44 11h1v1h-1zM6 12h1v1h-1zM7 12h1v1h-1zM8 12h1v1h-1zM10 12h1v1h-1zM12 12h1v1h-1zM13 12h1v1h-1zM14 12h1v1h-1zM15 12h1v1h-1zM16 12h1v1h-1zM20 12h1v1h-1zM21 12h1v1h-1zM24 12h1v1h-1zM25 12h1v1h-1zM26 12h1v1h-1zM27 12h1v1h-1zM28 12h1v1h-1zM29 12h1v1h-1zM30 12h1v1h-1zM32 12h1v1h-1zM33 12h1v1h-1zM34 12h1v1h-1zM35 12h1v1h-1zM36 12h1v1h-1zM37 12h1v1h-1zM40 12h1v1h-1zM42 12h1v1h-1zM43 12h1v1h-1zM44 12h1v1h-1zM45 12h1v1h-1zM46 12h1v1h-1zM47 12h1v1h-1zM50 12h1v1h-1zM51 12h1v1h-1zM52 12h1v1h-1zM6 13h1v1h-1zM7 13h1v1h-1zM9 13h1v1h-1zM11 13h1v1h-1zM12 13h1v1h-1zM13 13h1v1h-1zM15 13h1v1h-1zM17 13h1v1h-1zM18 13h1v1h-1zM20 13h1v1h-1zM21 13h1v1h-1zM22 13h1v1h-1zM23 13h1v1h-1zM25 13h1v1h-1zM29 13h1v1h-1zM31 13h1v1h-1zM34 13h1v1h-1zM41 13h1v1h-1zM45 13h1v1h-1zM46 13h1v1h-1zM49 13h1v1h-1zM50 13h1v1h-1zM51 13h1v1h-1zM4 14h1v1h-1zM7 14h1v1h-1zM9 14h1v1h-1zM10 14h1v1h-1zM12 14h1v1h-1zM13 14h1v1h-1zM14 14h1v1h-1zM15 14h1v1h-1zM18 14h1v1h-1zM19 14h1v1h-1zM20 14h1v1h-1zM23 14h1v1h-1zM24 14h1v1h-1zM25 14h1v1h-1zM26 14h1v1h-1zM28 14h1v1h-1zM29 14h1v1h-1zM30 14h1v1h-1zM31 14h1v1h-1zM35 14h1v1h-1zM36 14h1v1h-1zM38 14h1v1h-1zM39 14h1v1h-1zM42 14h1v1h-1zM44 14h1v1h-1zM47 14h1v1h-1zM51 14h1v1h-1zM52 14h1v1h-1zM4 15h1v1h-1zM6 15h1v1h-1zM7 15h1v1h-1zM8 15h1v1h-1zM11 15h1v1h-1zM13 15h1v1h-1zM14 15h1v1h-1zM18 15h1v1h-1zM19 15h1v1h-1zM20 15h1v1h-1zM22 15h1v1h-1zM23 15h1v1h-1zM25 15h1v1h-1zM27 15h1v1h-1zM33 15h1v1h-1zM36 15h1v1h-1zM37 15h1v1h-1zM39 15h1v1h-1zM44 15h1v1h-1zM46 15h1v1h-1zM48 15h1v1h-1zM51 15h1v1h-1zM4 16h1v1h-1zM5 16h1v1h-1zM6 16h1v1h-1zM7 16h1v1h-1zM9 16h1v1h-1zM10 16h1v1h-1zM11 16h1v1h-1zM12 16h1v1h-1zM16 16h1v1h-1zM18 16h1v1h-1zM19 16h1v1h-1zM20 16h1v1h-1zM21 16h1v1h-1zM22 16h1v1h-1zM23 16h1v1h-1zM25 16h1v1h-1zM27 16h1v1h-1zM30 16h1v1h-1zM32 16h1v1h-1zM33 16h1v1h-1zM34 16h1v1h-1zM35 16h1v1h-1zM37 16h1v1h-1zM38 16h1v1h-1zM39 16h1v1h-1zM40 16h1v1h-1zM41 16h1v1h-1zM42 16h1v1h-1zM43 16h1v1h-1zM44 16h1v1h-1zM45 16h1v1h-1zM49 16h1v1h-1zM50 16h1v1h-1zM51 16h1v1h-1zM5 17h1v1h-1zM6 17h1v1h-1zM9 17h1v1h-1zM11 17h1v1h-1zM12 17h1v1h-1zM13 17h1v1h-1zM14 17h1v1h-1zM15 17h1v1h-1zM22 17h1v1h-1zM23 17h1v1h-1zM25 17h1v1h-1zM27 17h1v1h-1zM28 17h1v1h-1zM30 17h1v1h-1zM31 17h1v1h-1zM33 17h1v1h-1zM40 17h1v1h-1zM41 17h1v1h-1zM43 17h1v1h-1zM45 17h1v1h-1zM46 17h1v1h-1zM4 18h1v1h-1zM6 18h1v1h-1zM8 18h1v1h-1zM10 18h1v1h-1zM11 18h1v1h-1zM12 18h1v1h-1zM13 18h1v1h-1zM16 18h1v1h-1zM19 18h1v1h-1zM20 18h1v1h-1zM22 18h1v1h-1zM24 18h1v1h-1zM25 18h1v1h-1zM27 18h1v1h-1zM28 18h1v1h-1zM31 18h1v1h-1zM32 18h1v1h-1zM34 18h1v1h-1zM37 18h1v1h-1zM38 18h1v1h-1zM39 18h1v1h-1zM40 18h1v1h-1zM42 18h1v1h-1zM43 18h1v1h-1zM44 18h1v1h-1zM47 18h1v1h-1zM49 18h1v1h-1zM51 18h1v1h-1zM52 18h1v1h-1zM14 19h1v1h-1zM17 19h1v1h-1zM18 19h1v1h-1zM20 19h1v1h-1zM22 19h1v1h-1zM24 19h1v1h-1zM25 19h1v1h-1zM27 19h1v1h-1zM29 19h1v1h-1zM30 19h1v1h-1zM31 19h1v1h-1zM32 19h1v1h-1zM35 19h1v1h-1zM36 19h1v1h-1zM37 19h1v1h-1zM39 19h1v1h-1zM41 19h1v1h-1zM43 19h1v1h-1zM44 19h1v1h-1zM46 19h1v1h-1zM48 19h1v1h-1zM5 20h1v1h-1zM7 20h1v1h-1zM9 20h1v1h-1zM10 20h1v1h-1zM11 20h1v1h-1zM12 20h1v1h-1zM13 20h1v1h-1zM18 20h1v1h-1zM19 20h1v1h-1zM22 20h1v1h-1zM25 20h1v1h-1zM26 20h1v1h-1zM28 20h1v1h-1zM30 20h1v1h-1zM31 20h1v1h-1zM32 20h1v1h-1zM35 20h1v1h-1zM39 20h1v1h-1zM40 20h1v1h-1zM42 20h1v1h-1zM44 20h1v1h-1zM45 20h1v1h-1zM47 20h1v1h-1zM50 20h1v1h-1zM52 20h1v1h-1zM4 21h1v1h-1zM6 21h1v1h-1zM8 21h1v1h-1zM11 21h1v1h-1zM13 21h1v1h-1zM14 21h1v1h-1zM16 21h1v1h-1zM17 21h1v1h-1zM19 21h1v1h-1zM20 21h1v1h-1zM21 21h1v1h-1zM24 21h1v1h-1zM25 21h1v1h-1zM26 21h1v1h-1zM28 21h1v1h-1zM29 21h1v1h-1zM30 21h1v1h-1zM32 21h1v1h-1zM33 21h1v1h-1zM36 21h1v1h-1zM37 21h1v1h-1zM39 21h1v1h-1zM40 21h1v1h-1zM46 21h1v1h-1zM49 21h1v1h-1zM50 21h1v1h-1zM51 21h1v1h-1zM4 22h1v1h-1zM7 22h1v1h-1zM9 22h1v1h-1zM10 22h1v1h-1zM11 22h1v1h-1zM12 22h1v1h-1zM15 22h1v1h-1zM18 22h1v1h-1zM22 22h1v1h-1zM24 22h1v1h-1zM26 22h1v1h-1zM27 22h1v1h-1zM29 22h1v1h-1zM31 22h1v1h-1zM32 22h1v1h-1zM33 22h1v1h-1zM35 22h1v1h-1zM36 22h1v1h-1zM37 22h1v1h-1zM38 22h1v1h-1zM39 22h1v1h-1zM40 22h1v1h-1zM41 22h1v1h-1zM42 22h1v1h-1zM44 22h1v1h-1zM47 22h1v1h-1zM49 22h1v1h-1zM51 22h1v1h-1zM52 22h1v1h-1zM4 23h1v1h-1zM5 23h1v1h-1zM8 23h1v1h-1zM9 23h1v1h-1zM12 23h1v1h-1zM13 23h1v1h-1zM17 23h1v1h-1zM18 23h1v1h-1zM23 23h1v1h-1zM29 23h1v1h-1zM31 23h1v1h-1zM33 23h1v1h-1zM35 23h1v1h-1zM41 23h1v1h-1zM42 23h1v1h-1zM44 23h1v1h-1zM46 23h1v1h-1zM47 23h1v1h-1zM48 23h1v1h-1zM51 23h1v1h-1zM6 24h1v1h-1zM9 24h1v1h-1zM10 24h1v1h-1zM11 24h1v1h-1zM14 24h1v1h-1zM15 24h1v1h-1zM16 24h1v1h-1zM27 24h1v1h-1zM28 24h1v1h-1zM30 24h1v1h-1zM31 24h1v1h-1zM32 24h1v1h-1zM33 24h1v1h-1zM34 24h1v1h-1zM36 24h1v1h-1zM37 24h1v1h-1zM39 24h1v1h-1zM40 24h1v1h-1zM41 24h1v1h-1zM42 24h1v1h-1zM44 24h1v1h-1zM46 24h1v1h-1zM47 24h1v1h-1zM50 24h1v1h-1zM52 24h1v1h-1zM7 25h1v1h-1zM11 25h1v1h-1zM14 25h1v1h-1zM15 25h1v1h-1zM16 25h1v1h-1zM20 25h1v1h-1zM22 25h1v1h-1zM23 25h1v1h-1zM25 25h1v1h-1zM27 25h1v1h-1zM29 25h1v1h-1zM33 25h1v1h-1zM35 25h1v1h-1zM36 25h1v1h-1zM39 25h1v1h-1zM40 25h1v1h-1zM45 25h1v1h-1zM46 25h1v1h-1zM49 25h1v1h-1zM4 26h1v1h-1zM5 26h1v1h-1zM7 26h1v1h-1zM8 26h1v1h-1zM9 26h1v1h-1zM10 26h1v1h-1zM11 26h1v1h-1zM12 26h1v1h-1zM14 26h1v1h-1zM16 26h1v1h-1zM17 26h1v1h-1zM18 26h1v1h-1zM19 26h1v1h-1zM20 26h1v1h-1zM23 26h1v1h-1zM24 26h1v1h-1zM26 26h1v1h-1zM27 26h1v1h-1zM28 26h1v1h-1zM29 26h1v1h-1zM30 26h1v1h-1zM32 26h1v1h-1zM33 26h1v1h-1zM34 26h1v1h-1zM36 26h1v1h-1zM38 26h1v1h-1zM39 26h1v1h-1zM40 26h1v1h-1zM42 26h1v1h-1zM44 26h1v1h-1zM45 26h1v1h-1zM46 26h1v1h-1zM47 26h1v1h-1zM48 26h1v1h-1zM49 26h1v1h-1zM51 26h1v1h-1zM52 26h1v1h-1zM7 27h1v1h-1zM8 27h1v1h-1zM12 27h1v1h-1zM13 27h1v1h-1zM14 27h1v1h-1zM16 27h1v1h-1zM20 27h1v1h-1zM21 27h1v1h-1zM24 27h1v1h-1zM26 27h1v1h-1zM30 27h1v1h-1zM37 27h1v1h-1zM43 27h1v1h-1zM44 27h1v1h-1zM48 27h1v1h-1zM51 27h1v1h-1zM4 28h1v1h-1zM5 28h1v1h-1zM6 28h1v1h-1zM7 28h1v1h-1zM8 28h1v1h-1zM10 28h1v1h-1zM12 28h1v1h-1zM14 28h1v1h-1zM15 28h1v1h-1zM17 28h1v1h-1zM21 28h1v1h-1zM22 28h1v1h-1zM24 28h1v1h-1zM26 28h1v1h-1zM28 28h1v1h-1zM30 28h1v1h-1zM31 28h1v1h-1zM35 28h1v1h-1zM36 28h1v1h-1zM39 28h1v1h-1zM40 28h1v1h-1zM41 28h1v1h-1zM44 28h1v1h-1zM46 28h1v1h-1zM48 28h1v1h-1zM49 28h1v1h-1zM50 28h1v1h-1zM52 28h1v1h-1zM4 29h1v1h-1zM5 29h1v1h-1zM6 29h1v1h-1zM7 29h1v1h-1zM8 29h1v1h-1zM12 29h1v1h-1zM14 29h1v1h-1zM16 29h1v1h-1zM17 29h1v1h-1zM19 29h1v1h-1zM21 29h1v1h-1zM22 29h1v1h-1zM24 29h1v1h-1zM26 29h1v1h-1zM30 29h1v1h-1zM31 29h1v1h-1zM32 29h1v1h-1zM33 29h1v1h-1zM34 29h1v1h-1zM36 29h1v1h-1zM37 29h1v1h-1zM39 29h1v1h-1zM40 29h1v1h-1zM41 29h1v1h-1zM44 29h1v1h-1zM48 29h1v1h-1zM50 29h1v1h-1zM8 30h1v1h-1zM9 30h1v1h-1zM10 30h1v1h-1zM11 30h1v1h-1zM12 30h1v1h-1zM17 30h1v1h-1zM18 30h1v1h-1zM21 30h1v1h-1zM23 30h1v1h-1zM24 30h1v1h-1zM25 30h1v1h-1zM26 30h1v1h-1zM27 30h1v1h-1zM28 30h1v1h-1zM29 30h1v1h-1zM30 30h1v1h-1zM31 30h1v1h-1zM32 30h1v1h-1zM33 30h1v1h-1zM35 30h1v1h-1zM36 30h1v1h-1zM37 30h1v1h-1zM38 30h1v1h-1zM41 30h1v1h-1zM42 30h1v1h-1zM43 30h1v1h-1zM44 30h1v1h-1zM45 30h1v1h-1zM46 30h1v1h-1zM47 30h1v1h-1zM48 30h1v1h-1zM50 30h1v1h-1zM51 30h1v1h-1zM52 30h1v1h-1zM4 31h1v1h-1zM5 31h1v1h-1zM7 31h1v1h-1zM8 31h1v1h-1zM11 31h1v1h-1zM15 31h1v1h-1zM24 31h1v1h-1zM25 31h1v1h-1zM26 31h1v1h-1zM27 31h1v1h-1zM28 31h1v1h-1zM29 31h1v1h-1zM30 31h1v1h-1zM32 31h1v1h-1zM36 31h1v1h-1zM38 31h1v1h-1zM41 31h1v1h-1zM44 31h1v1h-1zM45 31h1v1h-1zM47 31h1v1h-1zM4 32h1v1h-1zM6 32h1v1h-1zM10 32h1v1h-1zM12 32h1v1h-1zM13 32h1v1h-1zM15 32h1v1h-1zM17 32h1v1h-1zM18 32h1v1h-1zM19 32h1v1h-1zM21 32h1v1h-1zM22 32h1v1h-1zM23 32h1v1h-1zM24 32h1v1h-1zM25 32h1v1h-1zM26 32h1v1h-1zM33 32h1v1h-1zM34 32h1v1h-1zM35 32h1v1h-1zM37 32h1v1h-1zM38 32h1v1h-1zM39 32h1v1h-1zM40 32h1v1h-1zM43 32h1v1h-1zM44 32h1v1h-1zM47 32h1v1h-1zM48 32h1v1h-1zM49 32h1v1h-1zM50 32h1v1h-1zM51 32h1v1h-1zM4 33h1v1h-1zM5 33h1v1h-1zM9 33h1v1h-1zM11 33h1v1h-1zM12 33h1v1h-1zM13 33h1v1h-1zM14 33h1v1h-1zM15 33h1v1h-1zM16 33h1v1h-1zM19 33h1v1h-1zM20 33h1v1h-1zM23 33h1v1h-1zM26 33h1v1h-1zM30 33h1v1h-1zM32 33h1v1h-1zM35 33h1v1h-1zM39 33h1v1h-1zM40 33h1v1h-1zM41 33h1v1h-1zM43 33h1v1h-1zM45 33h1v1h-1zM46 33h1v1h-1zM47 33h1v1h-1zM4 34h1v1h-1zM8 34h1v1h-1zM9 34h1v1h-1zM10 34h1v1h-1zM11 34h1v1h-1zM15 34h1v1h-1zM16 34h1v1h-1zM18 34h1v1h-1zM19 34h1v1h-1zM20 34h1v1h-1zM23 34h1v1h-1zM24 34h1v1h-1zM25 34h1v1h-1zM27 34h1v1h-1zM30 34h1v1h-1zM37 34h1v1h-1zM38 34h1v1h-1zM40 34h1v1h-1zM42 34h1v1h-1zM45 34h1v1h-1zM46 34h1v1h-1zM47 34h1v1h-1zM50 34h1v1h-1zM51 34h1v1h-1zM52 34h1v1h-1zM8 35h1v1h-1zM9 35h1v1h-1zM11 35h1v1h-1zM12 35h1v1h-1zM14 35h1v1h-1zM16 35h1v1h-1zM17 35h1v1h-1zM18 35h1v1h-1zM19 35h1v1h-1zM25 35h1v1h-1zM26 35h1v1h-1zM30 35h1v1h-1zM32 35h1v1h-1zM33 35h1v1h-1zM37 35h1v1h-1zM41 35h1v1h-1zM44 35h1v1h-1zM47 35h1v1h-1zM4 36h1v1h-1zM6 36h1v1h-1zM8 36h1v1h-1zM10 36h1v1h-1zM13 36h1v1h-1zM15 36h1v1h-1zM20 36h1v1h-1zM22 36h1v1h-1zM23 36h1v1h-1zM24 36h1v1h-1zM28 36h1v1h-1zM29 36h1v1h-1zM30 36h1v1h-1zM31 36h1v1h-1zM32 36h1v1h-1zM34 36h1v1h-1zM37 36h1v1h-1zM40 36h1v1h-1zM41 36h1v1h-1zM42 36h1v1h-1zM43 36h1v1h-1zM44 36h1v1h-1zM45 36h1v1h-1zM48 36h1v1h-1zM49 36h1v1h-1zM50 36h1v1h-1zM52 36h1v1h-1zM4 37h1v1h-1zM5 37h1v1h-1zM8 37h1v1h-1zM11 37h1v1h-1zM13 37h1v1h-1zM16 37h1v1h-1zM21 37h1v1h-1zM23 37h1v1h-1zM24 37h1v1h-1zM26 37h1v1h-1zM30 37h1v1h-1zM31 37h1v1h-1zM32 37h1v1h-1zM34 37h1v1h-1zM39 37h1v1h-1zM40 37h1v1h-1zM44 37h1v1h-1zM47 37h1v1h-1zM5 38h1v1h-1zM6 38h1v1h-1zM8 38h1v1h-1zM9 38h1v1h-1zM10 38h1v1h-1zM11 38h1v1h-1zM14 38h1v1h-1zM16 38h1v1h-1zM17 38h1v1h-1zM18 38h1v1h-1zM20 38h1v1h-1zM21 38h1v1h-1zM22 38h1v1h-1zM25 38h1v1h-1zM29 38h1v1h-1zM32 38h1v1h-1zM33 38h1v1h-1zM37 38h1v1h-1zM38 38h1v1h-1zM40 38h1v1h-1zM42 38h1v1h-1zM43 38h1v1h-1zM45 38h1v1h-1zM46 38h1v1h-1zM48 38h1v1h-1zM52 38h1v1h-1zM4 39h1v1h-1zM6 39h1v1h-1zM7 39h1v1h-1zM8 39h1v1h-1zM9 39h1v1h-1zM11 39h1v1h-1zM14 39h1v1h-1zM15 39h1v1h-1zM16 39h1v1h-1zM18 39h1v1h-1zM20 39h1v1h-1zM24 39h1v1h-1zM26 39h1v1h-1zM27 39h1v1h-1zM29 39h1v1h-1zM30 39h1v1h-1zM31 39h1v1h-1zM32 39h1v1h-1zM33 39h1v1h-1zM36 39h1v1h-1zM37 39h1v1h-1zM44 39h1v1h-1zM47 39h1v1h-1zM48 39h1v1h-1zM51 39h1v1h-1zM4 40h1v1h-1zM5 40h1v1h-1zM7 40h1v1h-1zM8 40h1v1h-1zM10 40h1v1h-1zM14 40h1v1h-1zM15 40h1v1h-1zM16 40h1v1h-1zM19 40h1v1h-1zM21 40h1v1h-1zM23 40h1v1h-1zM25 40h1v1h-1zM26 40h1v1h-1zM29 40h1v1h-1zM30 40h1v1h-1zM31 40h1v1h-1zM32 40h1v1h-1zM34 40h1v1h-1zM35 40h1v1h-1zM39 40h1v1h-1zM40 40h1v1h-1zM41 40h1v1h-1zM43 40h1v1h-1zM45 40h1v1h-1zM46 40h1v1h-1zM48 40h1v1h-1zM49 40h1v1h-1zM50 40h1v1h-1zM51 40h1v1h-1zM7 41h1v1h-1zM11 41h1v1h-1zM12 41h1v1h-1zM16 41h1v1h-1zM17 41h1v1h-1zM19 41h1v1h-1zM20 41h1v1h-1zM22 41h1v1h-1zM23 41h1v1h-1zM24 41h1v1h-1zM25 41h1v1h-1zM26 41h1v1h-1zM27 41h1v1h-1zM28 41h1v1h-1zM29 41h1v1h-1zM32 41h1v1h-1zM35 41h1v1h-1zM37 41h1v1h-1zM41 41h1v1h-1zM44 41h1v1h-1zM46 41h1v1h-1zM47 41h1v1h-1zM49 41h1v1h-1zM51 41h1v1h-1zM5 42h1v1h-1zM9 42h1v1h-1zM10 42h1v1h-1zM11 42h1v1h-1zM17 42h1v1h-1zM19 42h1v1h-1zM20 42h1v1h-1zM21 42h1v1h-1zM22 42h1v1h-1zM23 42h1v1h-1zM26 42h1v1h-1zM29 42h1v1h-1zM30 42h1v1h-1zM32 42h1v1h-1zM33 42h1v1h-1zM34 42h1v1h-1zM35 42h1v1h-1zM36 42h1v1h-1zM37 42h1v1h-1zM38 42h1v1h-1zM39 42h1v1h-1zM42 42h1v1h-1zM44 42h1v1h-1zM45 42h1v1h-1zM46 42h1v1h-1zM47 42h1v1h-1zM49 42h1v1h-1zM50 42h1v1h-1zM51 42h1v1h-1zM52 42h1v1h-1zM5 43h1v1h-1zM6 43h1v1h-1zM7 43h1v1h-1zM11 43h1v1h-1zM14 43h1v1h-1zM17 43h1v1h-1zM19 43h1v1h-1zM22 43h1v1h-1zM23 43h1v1h-1zM24 43h1v1h-1zM27 43h1v1h-1zM29 43h1v1h-1zM31 43h1v1h-1zM32 43h1v1h-1zM35 43h1v1h-1zM36 43h1v1h-1zM38 43h1v1h-1zM41 43h1v1h-1zM42 43h1v1h-1zM47 43h1v1h-1zM52 43h1v1h-1zM4 44h1v1h-1zM5 44h1v1h-1zM6 44h1v1h-1zM10 44h1v1h-1zM11 44h1v1h-1zM12 44h1v1h-1zM15 44h1v1h-1zM16 44h1v1h-1zM17 44h1v1h-1zM18 44h1v1h-1zM19 44h1v1h-1zM23 44h1v1h-1zM24 44h1v1h-1zM26 44h1v1h-1zM27 44h1v1h-1zM28 44h1v1h-1zM29 44h1v1h-1zM30 44h1v1h-1zM31 44h1v1h-1zM33 44h1v1h-1zM34 44h1v1h-1zM35 44h1v1h-1zM37 44h1v1h-1zM38 44h1v1h-1zM39 44h1v1h-1zM40 44h1v1h-1zM41 44h1v1h-1zM43 44h1v1h-1zM44 44h1v1h-1zM45 44h1v1h-1zM46 44h1v1h-1zM47 44h1v1h-1zM48 44h1v1h-1zM49 44h1v1h-1zM50 44h1v1h-1zM51 44h1v1h-1zM52 44h1v1h-1zM12 45h1v1h-1zM13 45h1v1h-1zM15 45h1v1h-1zM17 45h1v1h-1zM19 45h1v1h-1zM20 45h1v1h-1zM21 45h1v1h-1zM23 45h1v1h-1zM25 45h1v1h-1zM26 45h1v1h-1zM30 45h1v1h-1zM32 45h1v1h-1zM34 45h1v1h-1zM35 45h1v1h-1zM37 45h1v1h-1zM39 45h1v1h-1zM40 45h1v1h-1zM44 45h1v1h-1zM48 45h1v1h-1zM51 45h1v1h-1zM4 46h1v1h-1zM5 46h1v1h-1zM6 46h1v1h-1zM7 46h1v1h-1zM8 46h1v1h-1zM9 46h1v1h-1zM10 46h1v1h-1zM18 46h1v1h-1zM20 46h1v1h-1zM21 46h1v1h-1zM22 46h1v1h-1zM23 46h1v1h-1zM24 46h1v1h-1zM25 46h1v1h-1zM26 46h1v1h-1zM28 46h1v1h-1zM30 46h1v1h-1zM31 46h1v1h-1zM32 46h1v1h-1zM34 46h1v1h-1zM35 46h1v1h-1zM38 46h1v1h-1zM39 46h1v1h-1zM41 46h1v1h-1zM42 46h1v1h-1zM44 46h1v1h-1zM46 46h1v1h-1zM48 46h1v1h-1zM49 46h1v1h-1zM51 46h1v1h-1zM52 46h1v1h-1zM4 47h1v1h-1zM10 47h1v1h-1zM16 47h1v1h-1zM18 47h1v1h-1zM20 47h1v1h-1zM21 47h1v1h-1zM24 47h1v1h-1zM26 47h1v1h-1zM30 47h1v1h-1zM31 47h1v1h-1zM36 47h1v1h-1zM37 47h1v1h-1zM39 47h1v1h-1zM41 47h1v1h-1zM42 47h1v1h-1zM43 47h1v1h-1zM44 47h1v1h-1zM48 47h1v1h-1zM51 47h1v1h-1zM52 47h1v1h-1zM4 48h1v1h-1zM6 48h1v1h-1zM7 48h1v1h-1zM8 48h1v1h-1zM10 48h1v1h-1zM12 48h1v1h-1zM13 48h1v1h-1zM16 48h1v1h-1zM20 48h1v1h-1zM22 48h1v1h-1zM26 48h1v1h-1zM27 48h1v1h-1zM28 48h1v1h-1zM29 48h1v1h-1zM30 48h1v1h-1zM33 48h1v1h-1zM35 48h1v1h-1zM37 48h1v1h-1zM38 48h1v1h-1zM39 48h1v1h-1zM40 48h1v1h-1zM41 48h1v1h-1zM42 48h1v1h-1zM43 48h1v1h-1zM44 48h1v1h-1zM45 48h1v1h-1zM46 48h1v1h-1zM47 48h1v1h-1zM48 48h1v1h-1zM50 48h1v1h-1zM51 48h1v1h-1zM52 48h1v1h-1zM4 49h1v1h-1zM6 49h1v1h-1zM7 49h1v1h-1zM8 49h1v1h-1zM10 49h1v1h-1zM12 49h1v1h-1zM14 49h1v1h-1zM15 49h1v1h-1zM16 49h1v1h-1zM17 49h1v1h-1zM19 49h1v1h-1zM20 49h1v1h-1zM22 49h1v1h-1zM24 49h1v1h-1zM25 49h1v1h-1zM29 49h1v1h-1zM31 49h1v1h-1zM33 49h1v1h-1zM34 49h1v1h-1zM35 49h1v1h-1zM40 49h1v1h-1zM41 49h1v1h-1zM44 49h1v1h-1zM45 49h1v1h-1zM46 49h1v1h-1zM48 49h1v1h-1zM49 49h1v1h-1zM51 49h1v1h-1zM52 49h1v1h-1zM4 50h1v1h-1zM6 50h1v1h-1zM7 50h1v1h-1zM8 50h1v1h-1zM10 50h1v1h-1zM12 50h1v1h-1zM14 50h1v1h-1zM15 50h1v1h-1zM16 50h1v1h-1zM17 50h1v1h-1zM19 50h1v1h-1zM21 50h1v1h-1zM22 50h1v1h-1zM26 50h1v1h-1zM29 50h1v1h-1zM30 50h1v1h-1zM32 50h1v1h-1zM34 50h1v1h-1zM36 50h1v1h-1zM37 50h1v1h-1zM38 50h1v1h-1zM42 50h1v1h-1zM43 50h1v1h-1zM45 50h1v1h-1zM46 50h1v1h-1zM47 50h1v1h-1zM51 50h1v1h-1zM52 50h1v1h-1zM4 51h1v1h-1zM10 51h1v1h-1zM13 51h1v1h-1zM15 51h1v1h-1zM17 51h1v1h-1zM18 51h1v1h-1zM19 51h1v1h-1zM20 51h1v1h-1zM21 51h1v1h-1zM22 51h1v1h-1zM23 51h1v1h-1zM27 51h1v1h-1zM31 51h1v1h-1zM36 51h1v1h-1zM38 51h1v1h-1zM41 51h1v1h-1zM44 51h1v1h-1zM46 51h1v1h-1zM47 51h1v1h-1zM52 51h1v1h-1zM4 52h1v1h-1zM5 52h1v1h-1zM6 52h1v1h-1zM7 52h1v1h-1zM8 52h1v1h-1zM9 52h1v1h-1zM10 52h1v1h-1zM13 52h1v1h-1zM16 52h1v1h-1zM17 52h1v1h-1zM18 52h1v1h-1zM19 52h1v1h-1zM20 52h1v1h-1zM21 52h1v1h-1zM32 52h1v1h-1zM35 52h1v1h-1zM39 52h1v1h-1zM40 52h1v1h-1zM42 52h1v1h-1zM44 52h1v1h-1zM48 52h1v1h-1zM50 52h1v1h-1zM51 52h1v1h-1zM52 52h1v1h-1z"/></svg>